# Wavefront .OBJ file for tesselated shape: tail-1 path: D:\Dropbox (Terradynamics Lab)\Qihan\CAD\self_righting_v2\tail.SLDPRT

g body_1
v 0.400000 -3.500000 0.075000
v 0.400000 -3.500000 -0.075000
v 0.400000 3.500000 -0.075000
v 0.400000 3.500000 0.075000
v 0.400000 3.500000 0.075000
v 0.400000 3.500000 -0.075000
v -0.400000 3.500000 -0.075000
v -0.400000 3.500000 0.075000
v -0.400000 3.500000 0.075000
v -0.400000 3.500000 -0.075000
v -0.400000 -3.500000 -0.075000
v -0.400000 -3.500000 0.075000
v -0.400000 -3.500000 0.075000
v -0.400000 -3.500000 -0.075000
v 0.400000 -3.500000 -0.075000
v 0.400000 -3.500000 0.075000
v -0.400000 -3.500000 0.075000
v 0.400000 -3.500000 0.075000
v 0.400000 3.500000 0.075000
v -0.400000 3.500000 0.075000
v 0.400000 3.500000 -0.075000
v 0.400000 -3.500000 -0.075000
v -0.400000 -3.500000 -0.075000
v -0.400000 3.500000 -0.075000
vn 1.000 0.000 0.000
vn 1.000 0.000 0.000
vn 1.000 0.000 0.000
vn 1.000 0.000 0.000
vn 0.000 1.000 0.000
vn 0.000 1.000 0.000
vn 0.000 1.000 0.000
vn 0.000 1.000 0.000
vn -1.000 0.000 0.000
vn -1.000 0.000 0.000
vn -1.000 0.000 0.000
vn -1.000 0.000 0.000
vn 0.000 -1.000 0.000
vn 0.000 -1.000 0.000
vn 0.000 -1.000 0.000
vn 0.000 -1.000 0.000
vn 0.000 0.000 1.000
vn 0.000 0.000 1.000
vn 0.000 0.000 1.000
vn 0.000 0.000 1.000
vn 0.000 0.000 -1.000
vn 0.000 0.000 -1.000
vn 0.000 0.000 -1.000
vn 0.000 0.000 -1.000
vt 0.0700 0.0000 0
vt 0.0700 -0.0015 0
vt 0.0000 -0.0015 0
vt 0.0000 0.0000 0
vt 0.0000 0.0080 0
vt 0.0015 0.0080 0
vt 0.0015 0.0000 0
vt 0.0000 0.0000 0
vt 0.0000 0.0000 0
vt 0.0000 -0.0015 0
vt -0.0700 -0.0015 0
vt -0.0700 0.0000 0
vt 0.0000 0.0000 0
vt -0.0015 0.0000 0
vt -0.0015 0.0080 0
vt 0.0000 0.0080 0
vt -0.0040 -0.0350 0
vt 0.0040 -0.0350 0
vt 0.0040 0.0350 0
vt -0.0040 0.0350 0
vt 0.0040 0.0350 0
vt 0.0040 -0.0350 0
vt -0.0040 -0.0350 0
vt -0.0040 0.0350 0
f 1/1/1 3/3/3 4/4/4
f 3/3/3 1/1/1 2/2/2
f 5/5/5 7/7/7 8/8/8
f 7/7/7 5/5/5 6/6/6
f 9/9/9 11/11/11 12/12/12
f 11/11/11 9/9/9 10/10/10
f 15/15/15 13/13/13 14/14/14
f 13/13/13 15/15/15 16/16/16
f 17/17/17 19/19/19 20/20/20
f 19/19/19 17/17/17 18/18/18
f 23/23/23 21/21/21 22/22/22
f 21/21/21 23/23/23 24/24/24
